# xmcd CD database file
#
# Track frame offsets:
#	150
#	11571
#	40592
#	55915
#	73053
#	100784
#	129955
#	162481
#	181289
#
# Disc length: 2666 seconds
#
# Revision: 0
# Processed by: cddbd v1.5.2PL0 Copyright (c) Steve Scherf et al.
# Submitted via: CDex 1.51
#
DISCID=6f0a6809
DTITLE=Stanley Clarke  - If This Bass Could Only Talk
DYEAR=1988
DGENRE=Jazz
TTITLE0=If This Bass Could Only Talk
TTITLE1=Goodbye Pork Pie Hat
TTITLE2=I Want To Play For Ya
TTITLE3=Stories To Tell
TTITLE4=Funny How Time Flies (When You're Having Fun)
TTITLE5=Workin' Man
TTITLE6=Tradition
TTITLE7=Come Take My Hand
TTITLE8=Bassically Taps
EXTD=YEAR: 1988
EXTT0=
EXTT1=
EXTT2=
EXTT3=
EXTT4=
EXTT5=
EXTT6=
EXTT7=
EXTT8=
PLAYORDER=
